<svg width="146" height="34" xmlns="http://www.w3.org/2000/svg">
  <style>
    /* <![CDATA[ */
      @-webkit-keyframes sweep {
        0% {
          -webkit-transform: scaleX(.05);
          transform: scaleX(.05)
        }
        50% {
          -webkit-transform: scale(1);
          transform: scale(1)
        }
        to {
          -webkit-transform: scaleX(.05);
          transform: scaleX(.05)
        }
      }

      @keyframes sweep {
        0% {
          -webkit-transform: scaleX(.05);
          transform: scaleX(.05)
        }
        50% {
          -webkit-transform: scale(1);
          transform: scale(1)
        }
        to {
          -webkit-transform: scaleX(.05);
          transform: scaleX(.05)
        }
      }
      .logo-bar{
        -webkit-animation: sweep 2s infinite ease;
        animation: sweep 2s infinite ease
      }

      @-webkit-keyframes intro {
        0% {
          opacity: 0
        }
        50% {
          opacity: 0
        }
        to {
          opacity: 1
        }
      }

      @keyframes intro {
        0% {
          opacity: 0
        }
        50% {
          opacity: 0
        }
        to {
          opacity: 1
        }
      }

    /* ]]> */

  </style>
  <g class="logo-all" transform="translate(-188.89 -38.337)" fill="#36454f">
    <g transform="translate(138.82 -5.6769)">
      <path
        d="m63.547 44.489h7.125v18h-5.3v-5.5q0-2 0.3-5.05l0.075-1h-0.05l-3.275 11.55h-4.1l-3.275-11.55h-0.05q0.2 1.825 0.275 3.35 0.1 1.525 0.1 2.1v6.1h-5.3v-18h7.125l3.175 11.225 3.175-11.225z"/>
      <path
        d="m83.356 49.514q1.425 0.5 2.025 1.525 0.625 1 0.625 3.175v6.475q0 0.6 0.15 0.925t0.55 0.625v0.25h-5.375l-0.25-1.4q-1 0.925-2.175 1.35-1.15 0.425-2.75 0.425-2.125 0-3.4-1.05-1.275-1.075-1.275-2.9 0-1.875 1.325-2.95 1.35-1.075 4.775-1.4 1.675-0.15 2.45-0.425 0.775-0.3 0.775-0.925 0-0.525-0.475-0.8-0.45-0.275-1.225-0.275-1.7 0-1.825 1.275h-5q0-2.25 1.775-3.325t5.375-1.075q2.5 0 3.925 0.5zm-4.85 10.4q1.1 0 1.7-0.675 0.6-0.7 0.6-2.05v-0.5q-0.375 0.2-1.025 0.375-0.625 0.15-1.25 0.275-0.85 0.175-1.275 0.525-0.4 0.325-0.4 0.95 0 0.5 0.45 0.8t1.2 0.3z"/>
      <path d="m87.805 62.489v-18h5.2v18h-5.2z"/>
      <path
        d="m105.81 49.514q1.425 0.5 2.025 1.525 0.625 1 0.625 3.175v6.475q0 0.6 0.15 0.925t0.55 0.625v0.25h-5.375l-0.25-1.4q-1 0.925-2.175 1.35-1.15 0.425-2.75 0.425-2.125 0-3.4-1.05-1.275-1.075-1.275-2.9 0-1.875 1.325-2.95 1.35-1.075 4.775-1.4 1.675-0.15 2.45-0.425 0.775-0.3 0.775-0.925 0-0.525-0.475-0.8-0.45-0.275-1.225-0.275-1.7 0-1.825 1.275h-5q0-2.25 1.775-3.325t5.375-1.075q2.5 0 3.925 0.5zm-4.85 10.4q1.1 0 1.7-0.675 0.6-0.7 0.6-2.05v-0.5q-0.375 0.2-1.025 0.375-0.625 0.15-1.25 0.275-0.85 0.175-1.275 0.525-0.4 0.325-0.4 0.95 0 0.5 0.45 0.8t1.2 0.3z"/>
      <path
        d="m118.4 54.139q-1.7 0-2.45 0.925-0.75 0.9-0.75 2.8v4.625h-5.2v-13.1h4.725v2.65h0.05q0.575-1.575 1.525-2.3 0.975-0.725 2.475-0.725 0.3 0 0.7 0.075v5.2q-0.7-0.15-1.075-0.15z"/>
      <path d="m120.04 47.714v-3.7h5.2v3.7h-5.2zm0 14.775v-13.1h5.2v13.1h-5.2z"/>
      <path
        d="m138.04 49.514q1.425 0.5 2.025 1.525 0.625 1 0.625 3.175v6.475q0 0.6 0.15 0.925t0.55 0.625v0.25h-5.375l-0.25-1.4q-1 0.925-2.175 1.35-1.15 0.425-2.75 0.425-2.125 0-3.4-1.05-1.275-1.075-1.275-2.9 0-1.875 1.325-2.95 1.35-1.075 4.775-1.4 1.675-0.15 2.45-0.425 0.775-0.3 0.775-0.925 0-0.525-0.475-0.8-0.45-0.275-1.225-0.275-1.7 0-1.825 1.275h-5q0-2.25 1.775-3.325t5.375-1.075q2.5 0 3.925 0.5zm-4.85 10.4q1.1 0 1.7-0.675 0.6-0.7 0.6-2.05v-0.5q-0.375 0.2-1.025 0.375-0.625 0.15-1.25 0.275-0.85 0.175-1.275 0.525-0.4 0.325-0.4 0.95 0 0.5 0.45 0.8t1.2 0.3z"/>
      <path
        d="m151.24 48.414q-1.65 0-2.55 1.375-0.875 1.375-0.875 3.875 0 2.45 0.95 3.675 0.975 1.225 2.8 1.225 1 0 1.925-0.625 0.95-0.625 1.125-1.45h-2.6v-3.9h8.075v9.95h-3.8l-0.225-1.775q-1.9 2.2-5.425 2.2-2.55 0-4.525-1.1-1.975-1.125-3.1-3.225-1.1-2.1-1.1-4.925 0-2.9 1.175-5.1t3.3-3.4 4.95-1.2q3.45 0 5.725 1.775 2.3 1.775 2.8 4.9h-5.6q-0.325-1.125-1.1-1.7t-1.925-0.575z"/>
      <path d="m168.29 48.689v2.575h7.425v4.2h-7.425v2.825h9.125v4.2h-15.025v-18h14.675v4.2h-8.775z"/>
      <path
        d="m190.7 49.964v-5.475h5.65v18h-5.525l-6.425-9.8q0.225 3.6 0.225 4.35v5.45h-5.65v-18h5.525l6.425 9.825q-0.225-3.775-0.225-4.35z"/>
    </g>
    <g transform="translate(38.992 3.9861)">
      <path
        d="m193.65 65.002h-3.4125l-0.6125 1.8375h-1.9125l3.2375-9.1125h2.075l3.15 9.1125h-1.925l-0.6-1.8375zm-0.5125-1.5625-1.1875-3.5625-1.1875 3.5625h2.375z"/>
      <path d="m202.84 66.84-3.6625-6.3v6.3h-1.875v-9.1125h1.925l3.6125 6.2v-6.2h1.875v9.1125h-1.875z"/>
      <path
        d="m211.79 65.002h-3.4125l-0.6125 1.8375h-1.9125l3.2375-9.1125h2.075l3.15 9.1125h-1.925l-0.6-1.8375zm-0.5125-1.5625-1.1875-3.5625-1.1875 3.5625h2.375z"/>
      <path d="m217.31 57.727v7.55h4.3625v1.5625h-6.2375v-9.1125h1.875z"/>
      <path
        d="m227.2 63.465v3.375h-1.875v-3.375l-3.025-5.7375h2.0875l1.8625 4.025 1.7375-4.025h2.1l-2.8875 5.7375z"/>
      <path d="m235.22 59.29v7.55h-1.875v-7.55h-2.7625v-1.5625h7.3v1.5625h-2.6625z"/>
      <path d="m241.14 57.727v9.1125h-1.875v-9.1125h1.875z"/>
      <path
        d="m248.84 60.815q-0.35-1.6375-1.95-1.6375-1.1125 0-1.7375 0.85t-0.625 2.3625q0 1.4875 0.6 2.325 0.6125 0.8375 1.7 0.8375 0.875 0 1.4-0.475t0.6125-1.35h1.825q-0.0875 1.5625-1.1375 2.4875-1.05 0.9125-2.75 0.9125-1.9 0-3.0125-1.275-1.1125-1.2875-1.1125-3.4875 0-2.2125 1.125-3.5t3.05-1.2875q1.6125 0 2.6375 0.8625 1.0375 0.8625 1.1625 2.375h-1.7875z"/>
      <path
        d="m258.85 60.502h-1.75q-0.1-1.425-1.9125-1.425-0.725 0-1.15 0.3125-0.425 0.3-0.425 0.8125 0 0.5 0.3625 0.75 0.3625 0.2375 1.3625 0.4375l1.425 0.275q1.2625 0.25 1.8375 0.85 0.575 0.5875 0.575 1.6625 0 1.3875-0.9875 2.175-0.9875 0.775-2.75 0.775-1.75 0-2.725-0.775-0.9625-0.775-1.05-2.2375h1.825q0.05 0.7375 0.575 1.125t1.475 0.3875q0.85 0 1.3375-0.325 0.5-0.325 0.5-0.9 0-0.55-0.3875-0.85t-1.325-0.475l-1.275-0.25q-1.3875-0.2625-1.975-0.825t-0.5875-1.625q0-1.3375 0.9-2.0625 0.9125-0.7375 2.55-0.7375 0.475 0 0.9125 0.0625 0.45 0.0625 0.95 0.2625 0.5 0.1875 0.8625 0.5 0.3625 0.3 0.6 0.85 0.25 0.5375 0.25 1.25z"/>
    </g>
    <g transform="translate(224.808, 66) rotate(180)">
      <path class="logo-bar" d="m0 0h35.918v1.5023h-35.918z"/>
    </g>
    <g transform="translate(301.3, 65.938)">
      <path class="logo-bar" d="m0 0h33.87v1.5023h-33.87z"/>
    </g>
  </g>
</svg>
