<?xml version="1.0" standalone="no"?>
<!DOCTYPE svg PUBLIC "-//W3C//DTD SVG 20010904//EN"
 "http://www.w3.org/TR/2001/REC-SVG-20010904/DTD/svg10.dtd">
<svg version="1.0" xmlns="http://www.w3.org/2000/svg"
 width="1110.000000pt" height="1110.000000pt" viewBox="0 0 1110.000000 1110.000000"
 preserveAspectRatio="xMidYMid meet">
<metadata>
Created by potrace 1.11, written by Peter Selinger 2001-2013
</metadata>
<g transform="translate(0.000000,1110.000000) scale(0.100000,-0.100000)"
fill="#000000" stroke="none">
<path d="M6770 11074 c-141 -21 -162 -24 -245 -46 -324 -83 -622 -254 -866
-498 -203 -202 -342 -420 -444 -695 -32 -86 -80 -271 -89 -345 -6 -43 -17
-114 -19 -117 -1 -1 -31 -4 -67 -8 -36 -3 -83 -10 -105 -15 -22 -5 -60 -11
-85 -15 -25 -3 -74 -13 -110 -21 -36 -9 -76 -18 -90 -20 -46 -9 -274 -76 -355
-104 -276 -96 -617 -261 -792 -381 -23 -16 -44 -29 -47 -29 -12 0 -332 -234
-356 -260 -3 -3 -36 -32 -75 -65 -123 -105 -361 -350 -447 -458 -9 -12 -40
-51 -69 -87 -113 -142 -261 -371 -357 -550 l-50 -93 -168 -2 c-224 -3 -388
-32 -582 -104 -407 -150 -754 -464 -943 -851 -68 -141 -124 -306 -147 -435 -4
-22 -7 -175 -7 -340 0 -333 4 -358 79 -566 34 -95 117 -271 140 -299 7 -8 15
-22 18 -30 13 -38 163 -224 249 -309 212 -211 458 -354 749 -436 94 -26 122
-32 195 -41 28 -4 54 -9 60 -12 5 -3 88 -7 183 -8 l173 -1 71 -129 c120 -218
281 -453 445 -647 83 -99 315 -333 403 -407 35 -30 71 -62 80 -70 25 -24 238
-182 320 -236 273 -182 592 -339 895 -440 102 -34 283 -86 345 -100 19 -4 37
-8 40 -9 82 -20 268 -52 345 -61 28 -3 60 -7 73 -9 161 -25 727 -26 857 -1 11
2 47 7 80 10 137 16 383 66 529 108 38 11 76 21 85 23 9 2 69 22 134 45 66 22
126 38 135 35 10 -2 29 -16 44 -30 15 -14 29 -25 31 -25 3 0 36 -18 73 -40 94
-55 209 -97 335 -124 85 -19 132 -23 240 -21 146 3 176 7 288 36 206 55 371
154 531 319 214 221 321 497 315 818 -3 141 -21 241 -67 368 l-30 84 78 122
c134 212 134 212 217 378 124 251 204 458 270 705 46 170 90 390 102 510 4 33
8 67 10 75 26 99 26 730 0 860 -3 14 -7 51 -10 84 -3 32 -7 62 -9 65 -2 3 -7
31 -11 61 -23 197 -118 533 -227 802 -146 365 -319 655 -598 1008 -18 22 -18
26 -5 45 146 202 254 420 311 625 19 65 17 60 32 130 28 139 36 212 36 375 1
253 -24 408 -99 631 -92 273 -243 513 -455 724 -290 291 -632 465 -1045 535
-125 21 -408 26 -525 9z"/>
</g>
</svg>
